<svg xmlns="http://www.w3.org/2000/svg" xmlns:xlink="http://www.w3.org/1999/xlink" width="110" height="27"><defs><path id="a" d="M633.33 470.2a9.17 9.17 0 0 1 3.06 2.2c.86.93 1.53 2.04 2.02 3.33.49 1.28.73 2.68.73 4.19h1.23c0-1.51.23-2.9.7-4.2a9.92 9.92 0 0 1 1.99-3.33 9.16 9.16 0 0 1 6.97-3c2.37 0 4.67.22 6.91.65 2.25.43 4.47.9 6.67 1.44 2.2.53 4.44 1 6.7 1.43 2.27.43 4.6.65 7 .65 2.2 0 4.27-.36 6.19-1.07a15.52 15.52 0 0 0 5.01-3 13.78 13.78 0 0 0 3.37-4.65c.81-1.82 1.22-3.8 1.22-5.97v-3.42h-.49c-.4 0-.61.24-.61.73v2.7c0 1.87-.35 3.62-1.04 5.26a12.43 12.43 0 0 1-2.97 4.25 13.72 13.72 0 0 1-4.62 2.81c-1.8.67-3.81 1.01-6.05 1.01-2.33 0-4.62-.21-6.89-.64-2.26-.43-4.52-.91-6.79-1.44-2.26-.53-4.52-1-6.79-1.44a36.62 36.62 0 0 0-6.82-.64 9.82 9.82 0 0 0-7.22 2.94 11.38 11.38 0 0 0-3.06 5.93c-.2-.98-.56-2-1.07-3.06a10.45 10.45 0 0 0-5.1-4.98 9.62 9.62 0 0 0-4.1-.83c-2.29 0-4.56.21-6.82.64-2.27.43-4.53.91-6.8 1.44a162.3 162.3 0 0 1-6.79 1.44c-2.26.43-4.55.64-6.88.64-2.24 0-4.26-.34-6.05-1a13.72 13.72 0 0 1-4.62-2.82 12.43 12.43 0 0 1-2.97-4.25 13.32 13.32 0 0 1-1.04-5.27v-2.69c0-.49-.2-.73-.61-.73h-.5v3.42c0 2.17.42 4.15 1.23 5.97a13.78 13.78 0 0 0 3.37 4.65 15.52 15.52 0 0 0 5.01 3c1.92.7 3.98 1.07 6.18 1.07 2.4 0 4.74-.22 7-.65 2.27-.42 4.5-.9 6.7-1.43 2.2-.53 4.42-1.01 6.64-1.44 2.23-.43 4.54-.64 6.95-.64 1.38 0 2.67.26 3.85.8z"/></defs><use fill="#fff" xlink:href="#a" transform="translate(-585 -454)"/></svg>